<?xml version="1.0" encoding="utf-8"?>
<!-- Generator: Adobe Illustrator 22.1.0, SVG Export Plug-In . SVG Version: 6.00 Build 0)  -->
<svg version="1.1" id="Calque_1" xmlns="http://www.w3.org/2000/svg" xmlns:xlink="http://www.w3.org/1999/xlink" x="0px" y="0px"
	 width="50px" height="50px" viewBox="0 0 50 50" style="enable-background:new 0 0 50 50;" xml:space="preserve">
<style type="text/css">
	.st0{fill:#86CBF5;}
</style>
<g>
	<g>
		<path class="st0" d="M41.6,8.2H8c-3,0-5.4,2.4-5.4,5.4v22.9C2.6,39.6,5,42,8,42h33.5c3,0,5.4-2.4,5.4-5.4V13.7
			C47,10.7,44.6,8.2,41.6,8.2z M44.5,36.6c0,1.6-1.3,2.9-2.9,2.9H8c-1.6,0-2.9-1.3-2.9-2.9V13.7c0-1.6,1.3-2.9,2.9-2.9h33.5
			c1.6,0,2.9,1.3,2.9,2.9L44.5,36.6L44.5,36.6z"/>
		<path class="st0" d="M30.6,24.8l10.9-9.7c0.5-0.5,0.6-1.2,0.1-1.8c-0.5-0.5-1.2-0.6-1.8-0.1l-15,13.4l-2.9-2.6c0,0,0,0,0,0
			c-0.1-0.1-0.1-0.1-0.2-0.2L9.8,13.2c-0.5-0.5-1.3-0.4-1.8,0.1c-0.5,0.5-0.4,1.3,0.1,1.8l11,9.8L8.2,35.1c-0.5,0.5-0.5,1.2-0.1,1.8
			c0.2,0.3,0.6,0.4,0.9,0.4c0.3,0,0.6-0.1,0.8-0.3L21,26.6l3,2.7c0.2,0.2,0.5,0.3,0.8,0.3s0.6-0.1,0.8-0.3l3.1-2.8l11,10.5
			c0.2,0.2,0.6,0.3,0.9,0.3c0.3,0,0.7-0.1,0.9-0.4c0.5-0.5,0.5-1.3,0-1.8L30.6,24.8z"/>
	</g>
</g>
</svg>
