<?xml version="1.0" encoding="utf-8"?>
<!-- Generator: Adobe Illustrator 22.1.0, SVG Export Plug-In . SVG Version: 6.00 Build 0)  -->
<svg version="1.1" id="Calque_1" xmlns="http://www.w3.org/2000/svg" xmlns:xlink="http://www.w3.org/1999/xlink" x="0px" y="0px"
	 width="50px" height="50px" viewBox="0 0 50 50" style="enable-background:new 0 0 50 50;" xml:space="preserve">
<style type="text/css">
	.st0{fill:#FFDF08;}
</style>
<g>
	<g>
		<path class="st0" d="M29.6,19.3c-0.5,0-0.9,0.4-0.9,0.9s0.4,0.9,0.9,0.9s0.9-0.4,0.9-0.9S30.1,19.3,29.6,19.3z"/>
	</g>
</g>
<g>
	<g>
		<path class="st0" d="M46,41.1L34.5,29.7c1.9-2.8,2.9-6.1,2.9-9.5C37.4,10.7,29.7,3,20.2,3S3,10.7,3,20.2s7.7,17.2,17.2,17.2
			c3.4,0,6.7-1,9.5-2.9l3.2,3.2c0,0,0,0,0,0l8.3,8.3c0.6,0.6,1.5,1,2.4,1s1.8-0.4,2.4-1c0.6-0.6,1-1.5,1-2.4S46.6,41.8,46,41.1z
			 M29.3,32.7C29.3,32.7,29.3,32.7,29.3,32.7c-2.7,1.9-5.8,2.9-9.1,2.9c-8.5,0-15.5-6.9-15.5-15.5S11.7,4.7,20.2,4.7
			s15.5,6.9,15.5,15.5c0,3.3-1,6.4-2.9,9.1C31.7,30.6,30.6,31.7,29.3,32.7z M31.1,33.5c0.9-0.7,1.7-1.5,2.4-2.4l2.4,2.4
			c-0.7,0.9-1.6,1.7-2.4,2.4L31.1,33.5z M44.8,44.8c-0.3,0.3-0.8,0.5-1.2,0.5s-0.9-0.2-1.2-0.5l-7.6-7.6c0.9-0.7,1.7-1.6,2.4-2.4
			l7.6,7.6c0.3,0.3,0.5,0.8,0.5,1.2S45.1,44.5,44.8,44.8z"/>
	</g>
</g>
<g>
	<g>
		<path class="st0" d="M20.2,6.4c-7.6,0-13.8,6.2-13.8,13.8s6.2,13.8,13.8,13.8s13.8-6.2,13.8-13.8S27.8,6.4,20.2,6.4z M20.2,32.2
			c-6.6,0-12-5.4-12-12s5.4-12,12-12s12,5.4,12,12S26.8,32.2,20.2,32.2z"/>
	</g>
</g>
<g>
	<g>
		<path class="st0" d="M29.8,16.5c-0.7-1.9-2-3.6-3.7-4.8c-1.7-1.2-3.8-1.9-5.9-1.9c-0.5,0-0.9,0.4-0.9,0.9s0.4,0.9,0.9,0.9
			c3.5,0,6.8,2.2,8,5.5c0.1,0.3,0.5,0.6,0.8,0.6c0.1,0,0.2,0,0.3-0.1C29.8,17.4,30,16.9,29.8,16.5z"/>
	</g>
</g>
</svg>
