<?xml version="1.0" encoding="utf-8"?>
<!-- Generator: Adobe Illustrator 22.1.0, SVG Export Plug-In . SVG Version: 6.00 Build 0)  -->
<svg version="1.1" id="Calque_1" xmlns="http://www.w3.org/2000/svg" xmlns:xlink="http://www.w3.org/1999/xlink" x="0px" y="0px"
	 width="50px" height="50px" viewBox="0 0 50 50" style="enable-background:new 0 0 50 50;" xml:space="preserve">
<style type="text/css">
	.st0{fill:#8A8A8A;}
</style>
<path class="st0" d="M45.8,43.1L35.3,32.2C38,29,39.5,25,39.5,20.8C39.5,11,31.5,3,21.7,3S4,11,4,20.8s8,17.8,17.8,17.8
	c3.7,0,7.2-1.1,10.2-3.2l10.6,11c0.4,0.5,1,0.7,1.7,0.7c0.6,0,1.2-0.2,1.6-0.6C46.7,45.5,46.7,44,45.8,43.1z M21.7,7.6
	c7.2,0,13.1,5.9,13.1,13.1S29,33.9,21.7,33.9S8.6,28,8.6,20.8S14.5,7.6,21.7,7.6z"/>
</svg>
