<?xml version="1.0" encoding="utf-8"?>
<!-- Generator: Adobe Illustrator 22.1.0, SVG Export Plug-In . SVG Version: 6.00 Build 0)  -->
<svg version="1.1" id="Calque_1" xmlns="http://www.w3.org/2000/svg" xmlns:xlink="http://www.w3.org/1999/xlink" x="0px" y="0px"
	 width="200px" height="50px" viewBox="0 0 200 50" style="enable-background:new 0 0 200 50;" xml:space="preserve">
<style type="text/css">
	.st0{fill:#FFFFFF;}
</style>
<g>
	<path class="st0" d="M35.4,17.1h5.8l-8.3,20.2h-5L24.7,29l-3.1,8.3h-5L8.3,17.1h5.8l5.5,14.5l1.9-5.5l-3.6-9h4.9l2,6.1l1.9-6.1h4.9
		l-3.5,9l1.9,5.5L35.4,17.1z"/>
	<path class="st0" d="M52.1,37.7c-1.7,0-3.2-0.3-4.6-0.8c-1.3-0.6-2.5-1.3-3.4-2.2s-1.6-2-2.1-3.3c-0.5-1.2-0.7-2.5-0.7-3.9
		c0-1.5,0.2-2.8,0.7-4.1c0.5-1.3,1.2-2.4,2.1-3.4c0.9-1,2.1-1.7,3.4-2.3c1.3-0.6,2.9-0.8,4.6-0.8c1.7,0,3.2,0.3,4.6,0.8
		c1.3,0.6,2.5,1.3,3.4,2.3s1.6,2.1,2.1,3.3s0.7,2.6,0.7,4c0,0.4,0,0.7,0,1.1c0,0.3-0.1,0.6-0.1,0.9h-15c0.1,1.4,0.6,2.4,1.5,3.1
		s1.9,1.1,3,1.1c0.9,0,1.8-0.2,2.6-0.7c0.8-0.4,1.4-1,1.7-1.8l5.2,1.5c-0.8,1.6-2,2.9-3.7,3.9C56.4,37.2,54.4,37.7,52.1,37.7z
		 M56.3,25.3c-0.1-1.3-0.6-2.3-1.4-3s-1.8-1.1-3-1.1s-2.2,0.4-3,1.1c-0.8,0.8-1.2,1.8-1.4,3H56.3z"/>
	<path class="st0" d="M71.4,37.7c-1,0-1.9-0.2-2.8-0.5s-1.6-0.8-2.2-1.3c-0.6-0.6-1.1-1.3-1.5-2c-0.4-0.8-0.5-1.6-0.5-2.6
		c0-1,0.2-1.9,0.6-2.7c0.4-0.8,1-1.5,1.8-2.1s1.7-1.1,2.7-1.4s2.2-0.5,3.5-0.5c0.8,0,1.7,0.1,2.5,0.2s1.5,0.4,2.1,0.6v-0.9
		c0-2.3-1.3-3.5-4-3.5c-1.1,0-2.2,0.2-3.1,0.6c-1,0.4-2,0.9-3.2,1.7l-1.8-3.8c1.3-0.9,2.7-1.5,4.1-2c1.4-0.4,3-0.7,4.6-0.7
		c3,0,5.4,0.7,7.1,2.2c1.7,1.4,2.5,3.5,2.5,6.3v5.2c0,0.6,0.1,1,0.3,1.3c0.2,0.2,0.5,0.4,1,0.4v5.2c-0.5,0.1-1,0.2-1.5,0.3
		c-0.4,0-0.8,0.1-1.2,0.1c-1.2,0-2-0.2-2.6-0.7c-0.6-0.4-1-1.1-1.1-1.9l-0.1-0.9c-0.9,1.2-2,2-3.2,2.7
		C74.1,37.4,72.8,37.7,71.4,37.7z M73.2,33.3c0.7,0,1.3-0.1,1.9-0.3s1.1-0.5,1.6-0.9c0.6-0.5,0.9-0.9,0.9-1.5v-1.9
		c-0.5-0.2-1.1-0.4-1.7-0.5C75.2,28,74.6,28,74.1,28c-1.1,0-2.1,0.3-2.8,0.8c-0.7,0.5-1.1,1.2-1.1,2c0,0.7,0.3,1.4,0.8,1.8
		C71.6,33,72.3,33.3,73.2,33.3z"/>
	<path class="st0" d="M101.7,37.3l-5.3-8.1l-2.2,2.2v5.9h-6.1v-28h6.1v16.2l6.8-8.4h6.5l-7.3,8.7l7.9,11.5H101.7z"/>
	<path class="st0" d="M118,37.7c-1.7,0-3.4-0.3-5.1-0.8c-1.7-0.6-3.1-1.4-4.2-2.4l2.2-3.8c1.2,0.8,2.4,1.5,3.6,2s2.3,0.7,3.4,0.7
		c0.8,0,1.4-0.1,1.8-0.4c0.4-0.3,0.7-0.7,0.7-1.2s-0.3-1-0.8-1.3c-0.6-0.3-1.5-0.7-2.9-1c-1.4-0.4-2.5-0.8-3.4-1.1
		c-0.9-0.4-1.7-0.8-2.3-1.2c-0.6-0.4-1-0.9-1.3-1.5s-0.4-1.2-0.4-2c0-1,0.2-2,0.6-2.8s1-1.6,1.7-2.2s1.6-1.1,2.6-1.4
		s2.1-0.5,3.2-0.5c1.5,0,2.9,0.2,4.2,0.6c1.3,0.4,2.6,1.2,3.8,2.2l-2.4,3.7c-1.2-0.8-2.2-1.4-3.1-1.7c-0.9-0.4-1.8-0.5-2.6-0.5
		c-0.7,0-1.2,0.1-1.7,0.4s-0.7,0.7-0.7,1.3c0,0.6,0.3,1,0.7,1.3c0.5,0.3,1.4,0.6,2.8,0.9c1.4,0.4,2.6,0.8,3.6,1.2
		c1,0.4,1.8,0.8,2.4,1.3s1.1,1,1.3,1.6c0.3,0.6,0.4,1.3,0.4,2.2c0,2-0.7,3.6-2.2,4.8C122.5,37.1,120.5,37.7,118,37.7z"/>
	<path class="st0" d="M141.9,37.7c-1.5,0-2.9-0.3-4-1c-1.1-0.6-2-1.5-2.6-2.7v11.4h-6.1V17.1h5.3v3.3c0.7-1.2,1.7-2,2.8-2.7
		c1.1-0.6,2.4-1,4-1c1.4,0,2.6,0.3,3.7,0.8c1.1,0.5,2.1,1.3,3,2.2c0.8,0.9,1.5,2,2,3.3s0.7,2.6,0.7,4.1s-0.2,2.9-0.7,4.2
		c-0.4,1.3-1,2.4-1.8,3.3c-0.8,0.9-1.7,1.7-2.8,2.2C144.4,37.4,143.2,37.7,141.9,37.7z M139.9,32.5c0.7,0,1.3-0.1,1.8-0.4
		c0.6-0.3,1-0.7,1.4-1.2s0.7-1.1,0.9-1.7c0.2-0.7,0.3-1.3,0.3-2.1c0-0.7-0.1-1.4-0.4-2.1c-0.2-0.6-0.6-1.2-1-1.6
		c-0.4-0.5-0.9-0.8-1.5-1.1c-0.6-0.3-1.2-0.4-1.9-0.4c-0.8,0-1.7,0.3-2.4,0.7c-0.8,0.5-1.4,1.2-1.8,2v4.1c0.4,1,1,1.9,1.9,2.6
		C138,32.1,138.9,32.5,139.9,32.5z"/>
	<path class="st0" d="M163.4,37.7c-1.7,0-3.2-0.3-4.6-0.8c-1.3-0.6-2.5-1.3-3.4-2.3s-1.6-2.1-2.1-3.3c-0.5-1.3-0.7-2.6-0.7-4
		s0.2-2.7,0.7-4s1.2-2.4,2.1-3.3c0.9-1,2.1-1.7,3.4-2.3c1.3-0.6,2.9-0.9,4.6-0.9c1.7,0,3.2,0.3,4.6,0.9c1.3,0.6,2.5,1.3,3.4,2.3
		s1.6,2.1,2.1,3.3c0.5,1.3,0.7,2.6,0.7,4s-0.2,2.7-0.7,4s-1.2,2.4-2.1,3.3c-0.9,1-2.1,1.7-3.4,2.3C166.6,37.4,165.1,37.7,163.4,37.7
		z M158.9,27.2c0,1.6,0.4,2.9,1.3,3.8c0.8,1,1.9,1.4,3.2,1.4c0.6,0,1.2-0.1,1.8-0.4c0.5-0.3,1-0.6,1.4-1.1s0.7-1,0.9-1.7
		s0.3-1.4,0.3-2.1c0-1.6-0.4-2.9-1.3-3.8c-0.8-1-1.9-1.4-3.2-1.4c-0.6,0-1.2,0.1-1.8,0.4s-1,0.6-1.4,1.1s-0.7,1-0.9,1.7
		C159,25.7,158.9,26.5,158.9,27.2z"/>
	<path class="st0" d="M190,36.2c-0.8,0.4-1.8,0.7-2.9,1c-1.1,0.3-2.2,0.5-3.3,0.5c-0.8,0-1.5-0.1-2.2-0.3s-1.3-0.5-1.8-0.9
		s-0.9-1-1.2-1.7s-0.4-1.5-0.4-2.5V21.8h-2.6v-4.6h2.6v-6.4h6.1v6.4h4.1v4.6h-4.1v8.4c0,0.7,0.2,1.1,0.5,1.4s0.8,0.4,1.3,0.4
		s0.9-0.1,1.4-0.2c0.5-0.2,0.9-0.3,1.3-0.5L190,36.2z"/>
</g>
</svg>
